<svg width="60" height="60" viewBox="0 0 60 60" fill="none" xmlns="http://www.w3.org/2000/svg">
  <rect width="60" height="60" rx="12" fill="#4F46E5"/>
  <path d="M15 20C15 17.2386 17.2386 15 20 15H40C42.7614 15 45 17.2386 45 20V40C45 42.7614 42.7614 45 40 45H20C17.2386 45 15 42.7614 15 40V20Z" fill="white"/>
  <path d="M20 30L25 25L30 30L35 20L40 35" stroke="#4F46E5" stroke-width="3" stroke-linecap="round" stroke-linejoin="round"/>
  <circle cx="20" cy="30" r="2" fill="#4F46E5"/>
  <circle cx="25" cy="25" r="2" fill="#4F46E5"/>
  <circle cx="30" cy="30" r="2" fill="#4F46E5"/>
  <circle cx="35" cy="20" r="2" fill="#4F46E5"/>
  <circle cx="40" cy="35" r="2" fill="#4F46E5"/>
  <rect x="18" y="38" width="4" height="4" fill="#4F46E5"/>
  <rect x="23" y="35" width="4" height="7" fill="#4F46E5"/>
  <rect x="28" y="32" width="4" height="10" fill="#4F46E5"/>
  <rect x="33" y="37" width="4" height="5" fill="#4F46E5"/>
  <rect x="38" y="30" width="4" height="12" fill="#4F46E5"/>
</svg>
